/vscmnt/brussel_pixiu_data/_data_brussel/112/vsc11236/PredSimResults/SUBJ10_Falisse2022/weightedWalking/worker_03.mot
version=1
nRows=4
nColumns=124
inDegrees=yes
endheader
                time	         pelvis_tilt	         pelvis_list	     pelvis_rotation	           pelvis_tx	           pelvis_ty	           pelvis_tz	       hip_flexion_r	     hip_adduction_r	      hip_rotation_r	        knee_angle_r	       ankle_angle_r	    subtalar_angle_r	         mtp_angle_r	       hip_flexion_l	     hip_adduction_l	      hip_rotation_l	        knee_angle_l	       ankle_angle_l	    subtalar_angle_l	         mtp_angle_l	    lumbar_extension	      lumbar_bending	     lumbar_rotation	          arm_flex_r	           arm_add_r	           arm_rot_r	        elbow_flex_r	          arm_flex_l	           arm_add_l	           arm_rot_l	        elbow_flex_l	glut_med1_r/activation	glut_med2_r/activation	glut_med3_r/activation	glut_min1_r/activation	glut_min2_r/activation	glut_min3_r/activation	semimem_r/activation	semiten_r/activation	bifemlh_r/activation	bifemsh_r/activation	    sar_r/activation	add_long_r/activation	add_brev_r/activation	add_mag1_r/activation	add_mag2_r/activation	add_mag3_r/activation	    tfl_r/activation	   pect_r/activation	   grac_r/activation	glut_max1_r/activation	glut_max2_r/activation	glut_max3_r/activation	iliacus_r/activation	  psoas_r/activation	quad_fem_r/activation	    gem_r/activation	   peri_r/activation	rect_fem_r/activation	vas_med_r/activation	vas_int_r/activation	vas_lat_r/activation	med_gas_r/activation	lat_gas_r/activation	 soleus_r/activation	tib_post_r/activation	flex_dig_r/activation	flex_hal_r/activation	tib_ant_r/activation	per_brev_r/activation	per_long_r/activation	per_tert_r/activation	ext_dig_r/activation	ext_hal_r/activation	glut_med1_l/activation	glut_med2_l/activation	glut_med3_l/activation	glut_min1_l/activation	glut_min2_l/activation	glut_min3_l/activation	semimem_l/activation	semiten_l/activation	bifemlh_l/activation	bifemsh_l/activation	    sar_l/activation	add_long_l/activation	add_brev_l/activation	add_mag1_l/activation	add_mag2_l/activation	add_mag3_l/activation	    tfl_l/activation	   pect_l/activation	   grac_l/activation	glut_max1_l/activation	glut_max2_l/activation	glut_max3_l/activation	iliacus_l/activation	  psoas_l/activation	quad_fem_l/activation	    gem_l/activation	   peri_l/activation	rect_fem_l/activation	vas_med_l/activation	vas_int_l/activation	vas_lat_l/activation	med_gas_l/activation	lat_gas_l/activation	 soleus_l/activation	tib_post_l/activation	flex_dig_l/activation	flex_hal_l/activation	tib_ant_l/activation	per_brev_l/activation	per_long_l/activation	per_tert_l/activation	ext_dig_l/activation	ext_hal_l/activation	 ercspn_r/activation	 ercspn_l/activation	 intobl_r/activation	 intobl_l/activation	 extobl_r/activation	 extobl_l/activation	
          1.18509357	         -6.56905646	         -1.56875697	          3.17028979	          1.32730480	          0.82174100	         -0.00473237	         34.45625395	          3.60237309	          2.79739127	        -11.72371594	         13.35588474	         -7.43894519	          0.23918059	        -14.54782583	          1.66929415	         10.63413832	         -7.20801640	          4.17717224	         -3.34042770	         30.47194552	         -3.05255710	          0.11131650	         -1.87018774	        -24.79313117	        -14.03876388	         16.77063430	         15.23072126	         30.03874796	        -13.46745926	         19.38581740	         65.57075063	          0.02200562	          0.01000024	          0.01000014	          0.01002232	          0.01000057	          0.01000053	          0.12153372	          0.03456200	          0.03169134	          0.01000016	          0.01503210	          0.04229556	          0.13516935	          0.16340077	          0.10981926	          0.05442206	          0.01196271	          0.01965335	          0.07355973	          0.02858135	          0.01815585	          0.05023624	          0.01722862	          0.01717347	          0.14366554	          0.01012586	          0.01304806	          0.01717288	          0.09166110	          0.08924061	          0.08133183	          0.01000002	          0.01000007	          0.01000002	          0.01873880	          0.01434067	          0.01434072	          0.31300430	          0.24950023	          0.17538680	          0.11708304	          0.38949239	          0.17044571	          0.12085972	          0.08396267	          0.06820344	          0.16736193	          0.14125358	          0.11430764	          0.01000792	          0.01000039	          0.01000038	          0.02754763	          0.06956194	          0.07791971	          0.01054488	          0.01929412	          0.01003442	          0.01000089	          0.20613210	          0.03676661	          0.02064865	          0.02056583	          0.01446250	          0.01434113	          0.24986783	          0.34876182	          0.02406318	          0.02060572	          0.09501127	          0.08186363	          0.01000081	          0.01000095	          0.01000130	          0.19495618	          0.26452462	          0.28998734	          0.27863334	          0.34964901	          0.34650306	          0.01000009	          0.01000004	          0.01000001	          0.01000011	          0.01000004	          0.01000035	          0.03883152	          0.01032045	          0.02604215	          0.01674675	          0.06884132	          0.01000003	
          1.19694451	         -6.55187408	         -1.80505439	          3.46064548	          1.34355512	          0.82027940	         -0.00448788	         33.72067284	          3.96387380	          3.08368999	        -12.29929447	         12.60880734	         -7.85099801	          0.22646109	        -14.36766379	          1.44472842	         10.17007561	         -9.56918672	          4.00117894	         -2.76050449	         31.63253924	         -2.91330140	          0.59280345	         -1.93129634	        -26.38213014	        -14.02403125	         16.91737999	         15.49917438	         30.07344527	        -13.48550681	         19.38143445	         67.87365561	          0.11051974	          0.01000012	          0.01000022	          0.01000021	          0.01000022	          0.13974226	          0.10148823	          0.02886184	          0.04488919	          0.03822882	          0.01255301	          0.03531950	          0.11287488	          0.13644987	          0.09170601	          0.04544591	          0.01000053	          0.01641263	          0.06142934	          0.12466306	          0.02952029	          0.04195058	          0.01438699	          0.01434094	          0.18328567	          0.02460734	          0.13002575	          0.01434044	          0.07654274	          0.07452148	          0.06791716	          0.01717293	          0.01717281	          0.01641417	          0.01564807	          0.01197540	          0.01197545	          0.33983475	          0.25960524	          0.14645897	          0.11480432	          0.46339290	          0.14233285	          0.18439982	          0.07011406	          0.05695412	          0.13975824	          0.11795557	          0.09545401	          0.01298014	          0.01003848	          0.01197382	          0.02300400	          0.05808859	          0.11282961	          0.01210454	          0.01611318	          0.01002045	          0.01000223	          0.17213317	          0.03070375	          0.01724306	          0.01717398	          0.01207743	          0.01197612	          0.20865519	          0.29123784	          0.02009427	          0.01720714	          0.07934033	          0.06836123	          0.01000010	          0.01000010	          0.01000008	          0.16280054	          0.22089452	          0.27799585	          0.24426539	          0.29198762	          0.30002912	          0.01000007	          0.01000007	          0.01000005	          0.01000013	          0.01000005	          0.01000033	          0.03242675	          0.02223213	          0.02174687	          0.01398458	          0.05748679	          0.01000006	
          1.20879544	         -6.53258962	         -2.03524956	          3.73260988	          1.35986549	          0.81884947	         -0.00421490	         32.89625009	          4.30435045	          3.38244043	        -12.78525228	         11.89442021	         -8.26250403	          0.22720311	        -14.05508245	          1.22379210	          9.69316935	        -12.15019015	          3.75309570	         -2.17811598	         32.54028922	         -2.77606034	          1.07373543	         -1.98359627	        -27.78713818	        -13.98334436	         17.23257433	         15.57168318	         29.99539776	        -13.50459028	         19.34513304	         69.98985949	          0.18920693	          0.19463624	          0.21459301	          0.08401061	          0.12932036	          0.11669403	          0.08474899	          0.04520784	          0.03748532	          0.03192354	          0.01048265	          0.02949403	          0.09425760	          0.11394432	          0.07667565	          0.05601680	          0.01000037	          0.01370599	          0.06428033	          0.15919930	          0.09276914	          0.06101980	          0.01201404	          0.01197559	          0.15305519	          0.02054925	          0.10857999	          0.01197517	          0.06391805	          0.06223019	          0.05671516	          0.01434047	          0.01434038	          0.01370686	          0.01306712	          0.01000024	          0.01000028	          0.42019548	          0.29171532	          0.15939219	          0.37654008	          0.49099559	          0.26093611	          0.20198691	          0.05854961	          0.04756024	          0.16339799	          0.09850030	          0.07971006	          0.02209828	          0.01000052	          0.01000053	          0.01920979	          0.04850762	          0.12474264	          0.01011088	          0.01345706	          0.01003147	          0.02678657	          0.14374198	          0.02563998	          0.01439912	          0.01434159	          0.01008588	          0.01000196	          0.17424008	          0.24320175	          0.01677998	          0.01436910	          0.06625412	          0.05708591	          0.02055860	          0.01953029	          0.01187593	          0.13594858	          0.18446068	          0.25460712	          0.23066768	          0.27298058	          0.27732938	          0.01000004	          0.01000104	          0.01000406	          0.01000028	          0.01000007	          0.01000028	          0.06066642	          0.03895823	          0.01842836	          0.01167800	          0.04800505	          0.01000001	
          1.22064638	         -6.51263554	         -2.25368440	          3.98525014	          1.37603571	          0.81764227	         -0.00390140	         32.08889398	          4.64750377	          3.67883899	        -13.26198521	         11.09790139	         -8.66275578	          0.22202502	        -13.59187336	          1.00590895	          9.21683029	        -14.93814879	          3.42201669	         -1.58208117	         33.04438176	         -2.65278677	          1.54669084	         -2.02801598	        -28.96099532	        -13.91396710	         17.68074306	         15.45165479	         29.83090035	        -13.51602613	         19.29241919	         71.83466649	          0.24187887	          0.27041283	          0.28517837	          0.08881394	          0.11627994	          0.13977501	          0.07077069	          0.04970076	          0.03481172	          0.02665818	          0.01000024	          0.02462940	          0.07871103	          0.09515093	          0.08291815	          0.07079603	          0.01000029	          0.01144601	          0.05367892	          0.19523676	          0.12594601	          0.07978464	          0.01003249	          0.01000039	          0.12781102	          0.01716066	          0.09067150	          0.01000006	          0.10403726	          0.10347455	          0.09703015	          0.01197519	          0.01197512	          0.01144608	          0.01224926	          0.01000065	          0.01000043	          0.48676165	          0.30137715	          0.15992302	          0.44019727	          0.52817061	          0.28392030	          0.18640779	          0.04889258	          0.03971576	          0.16634371	          0.08225393	          0.06656287	          0.02849875	          0.01001540	          0.01042781	          0.01604139	          0.04050692	          0.12517025	          0.08324951	          0.01124437	          0.01173100	          0.04265578	          0.12003356	          0.02141150	          0.01202428	          0.01197644	          0.01000207	          0.01000262	          0.14550132	          0.20308860	          0.01401235	          0.01199917	          0.05532632	          0.04767030	          0.02721085	          0.02514083	          0.02008137	          0.11352552	          0.15403615	          0.23132446	          0.21440284	          0.25057145	          0.26135953	          0.01000018	          0.01000018	          0.01000011	          0.01000041	          0.01000016	          0.01000085	          0.07206261	          0.06045677	          0.01538887	          0.01000001	          0.04008720	          0.01000001	
